<!--?xml version="1.0" standalone="no"?-->
              <svg id="sw-js-blob-svg" viewBox="0 0 100 100" xmlns="http://www.w3.org/2000/svg" version="1.1">
                    <defs> 
                        <linearGradient id="sw-gradient" x1="0" x2="1" y1="1" y2="0">
                            <stop id="stop1" stop-color="rgba(230, 242, 255, 1)" offset="0%"></stop>
                            <stop id="stop2" stop-color="rgba(230, 242, 255, 1)" offset="100%"></stop>
                        </linearGradient>
                    </defs>
                <path fill="url(#sw-gradient)" d="M22.8,-40C29.3,-35.6,34.3,-29.2,36.4,-22.2C38.5,-15.1,37.6,-7.6,35.8,-1.1C34,5.5,31.2,10.9,27.9,15.8C24.6,20.8,20.8,25.1,16.1,27.5C11.3,29.9,5.7,30.3,0.2,30C-5.3,29.7,-10.7,28.7,-15.3,26.3C-19.9,23.8,-23.8,19.9,-28.3,15.3C-32.8,10.7,-38,5.3,-38.6,-0.4C-39.3,-6,-35.3,-12.1,-30.9,-16.9C-26.5,-21.7,-21.6,-25.3,-16.3,-30.4C-11.1,-35.5,-5.6,-42.1,1.3,-44.3C8.1,-46.5,16.2,-44.3,22.8,-40Z" width="100%" height="100%" transform="translate(50 50)" stroke-width="0" style="transition: all 0.3s ease 0s;" stroke="url(#sw-gradient)"></path>
              </svg>